<svg width="1282" height="144" viewBox="0 0 1282 144" fill="none" xmlns="http://www.w3.org/2000/svg">
<g clip-path="url(#clip0_553_5616)">
<path d="M0 143.4H1282C1281.96 107.55 1282.04 88.34 1282 52.49C1233.62 64.92 1171.39 79.94 1136.9 82.9C979.73 96.42 978.85 61.07 821.88 64.39C759.48 65.71 685.22 82.3 618.41 88.43C479.97 101.12 417.49 72.74 267.04 43.26C215.74 33.21 100.78 26.48 0 36.06V143.4Z" fill="#00A6DB"/>
<path d="M989.02 46.7H956.52V93.82H989.02V46.7Z" fill="#3576A7"/>
<path d="M984.56 41.59H960.98V68.58H984.56V41.59Z" fill="#3576A7"/>
<path d="M981.25 36.21H964.28V63.2H981.25V36.21Z" fill="#3576A7"/>
<path d="M974.35 22.38H971.54V36.21H974.35V22.38Z" fill="#3576A7"/>
<path d="M967.79 56.25H956.52V58.54H967.79V56.25Z" fill="#09366D"/>
<path d="M989.02 56.25H977.75V58.54H989.02V56.25Z" fill="#09366D"/>
<path d="M989.02 65.88H977.75V68.17H989.02V65.88Z" fill="#09366D"/>
<path d="M989.02 75.51H977.75V77.8H989.02V75.51Z" fill="#09366D"/>
<path d="M967.79 65.88H956.52V68.17H967.79V65.88Z" fill="#09366D"/>
<path d="M967.79 75.51H956.52V77.8H967.79V75.51Z" fill="#09366D"/>
<path d="M714.96 103.33H680.74V40.94H707.91L714.96 103.33Z" fill="#3576A7"/>
<path d="M714.96 103.33H689.27V47.48H708.79L709.73 56.04L709.89 57.43L710.81 65.77L710.96 67.16L711.85 75.16L712 76.56L712.88 84.56L713.04 85.96L713.96 94.29L714.11 95.69L714.96 103.33Z" fill="#09366D"/>
<path d="M709.89 57.43H688.35V56.04H709.73L709.89 57.43Z" fill="#3576A7"/>
<path d="M710.96 67.16H688.35V65.77H710.81L710.96 67.16Z" fill="#3576A7"/>
<path d="M712 76.56H688.35V75.16H711.85L712 76.56Z" fill="#3576A7"/>
<path d="M713.04 85.96H688.35V84.56H712.88L713.04 85.96Z" fill="#3576A7"/>
<path d="M714.11 95.69H688.35V94.29H713.96L714.11 95.69Z" fill="#3576A7"/>
<path d="M704.91 33.71V37.94H683.73V33.71H704.91ZM707.91 30.71H680.73V40.94H707.91V30.71Z" fill="#3576A7"/>
<path d="M917.48 32.69H883.92V85.68H917.48V32.69Z" fill="#3576A7"/>
<path d="M899.8 38.46H888.81V43.11H899.8V38.46Z" fill="#09366D"/>
<path d="M912.59 38.46H901.6V43.11H912.59V38.46Z" fill="#09366D"/>
<path d="M899.8 46.76H888.81V51.41H899.8V46.76Z" fill="#09366D"/>
<path d="M912.59 46.76H901.6V51.41H912.59V46.76Z" fill="#09366D"/>
<path d="M899.8 55.06H888.81V59.71H899.8V55.06Z" fill="#09366D"/>
<path d="M912.59 55.06H901.6V59.71H912.59V55.06Z" fill="#09366D"/>
<path d="M899.8 63.36H888.81V68.01H899.8V63.36Z" fill="#09366D"/>
<path d="M912.59 63.36H901.6V68.01H912.59V63.36Z" fill="#09366D"/>
<path d="M899.8 71.66H888.81V76.31H899.8V71.66Z" fill="#09366D"/>
<path d="M912.59 71.66H901.6V76.31H912.59V71.66Z" fill="#09366D"/>
<path d="M912.59 27.58H888.81V32.68H912.59V27.58Z" fill="#3576A7"/>
<path d="M666.39 105.86V40.67H640.19C640.19 40.67 628.13 63.32 631.94 105.86H666.4H666.39Z" fill="#3576A7"/>
<path d="M661.38 105.86V48.18H643.7C643.7 48.18 635.57 68.22 638.13 105.86H661.37H661.38Z" fill="#09366D"/>
<path d="M638.88 60.22H654.02V58.83H638.99L638.88 60.22Z" fill="#3576A7"/>
<path d="M638.12 69.95H654.02V68.56H638.23L638.12 69.95Z" fill="#3576A7"/>
<path d="M637.39 79.35H654.02V77.95H637.5L637.39 79.35Z" fill="#3576A7"/>
<path d="M636.66 88.75H654.02V87.35H636.77L636.66 88.75Z" fill="#3576A7"/>
<path d="M635.91 98.48H654.02V97.08H636.01L635.91 98.48Z" fill="#3576A7"/>
<path d="M589.06 67.31H538.53V110.23H589.06V67.31Z" fill="#3576A7"/>
<path d="M550.01 72.02H543.57V83.51H550.01V72.02Z" fill="#09366D"/>
<path d="M561.35 72.02H554.91V83.51H561.35V72.02Z" fill="#09366D"/>
<path d="M572.69 72.02H566.25V83.51H572.69V72.02Z" fill="#09366D"/>
<path d="M584.03 72.02H577.59V83.51H584.03V72.02Z" fill="#09366D"/>
<path d="M550.01 86.81H543.57V98.3H550.01V86.81Z" fill="#09366D"/>
<path d="M561.35 86.81H554.91V98.3H561.35V86.81Z" fill="#09366D"/>
<path d="M572.69 86.81H566.25V98.3H572.69V86.81Z" fill="#09366D"/>
<path d="M584.03 86.81H577.59V98.3H584.03V86.81Z" fill="#09366D"/>
<path d="M75.1599 0H53.1599V52H75.1599V0Z" fill="#3576A7"/>
<path d="M86.1599 10H75.1599V52H86.1599V10Z" fill="#3576A7"/>
<path d="M97.1599 20H86.1599V52H97.1599V20Z" fill="#3576A7"/>
<path d="M93.65 25H89.25V52H93.65V25Z" fill="#09366D"/>
<path d="M85.4798 25H81.0798V52H85.4798V25Z" fill="#09366D"/>
<path d="M77.3199 16H72.9199V52H77.3199V16Z" fill="#09366D"/>
<path d="M69.15 7H64.75V52H69.15V7Z" fill="#09366D"/>
<path d="M60.9898 7H56.5898V52H60.9898V7Z" fill="#09366D"/>
<path d="M0 143.4H1282C1281.96 107.55 1282.04 111.09 1282 75.24C1230.79 87.67 1185.85 93.71 1149.35 96.68C982.98 110.2 998.48 79.89 832.32 83.21C766.27 84.53 687.66 101.12 616.94 107.25C470.4 119.94 399.01 77.81 245.71 58.37C190.88 51.41 106.67 44.97 0 54.55V143.41L0 143.4Z" fill="#09366D"/>
<path d="M772.278 67.4353L766.285 67.7075L767.71 99.0851L773.703 98.8129L772.278 67.4353Z" fill="#09366D"/>
<path d="M758.66 68.5643C763.267 68.3551 766.806 63.8829 766.565 58.5754C766.324 53.2679 762.394 49.1349 757.787 49.3441C753.18 49.5533 749.641 54.0254 749.882 59.3329C750.123 64.6404 754.053 68.7734 758.66 68.5643Z" fill="#09366D"/>
<path d="M775.798 67.3503C781.182 67.1057 785.33 62.1085 785.061 56.1886C784.792 50.2687 780.209 45.6678 774.824 45.9124C769.439 46.1569 765.292 51.1541 765.561 57.0741C765.83 62.994 770.413 67.5948 775.798 67.3503Z" fill="#09366D"/>
<path d="M777.792 76.5474C782.769 76.3214 786.615 71.9921 786.382 66.8777C786.15 61.7633 781.928 57.8005 776.951 58.0264C771.975 58.2524 768.129 62.5817 768.361 67.6961C768.593 72.8105 772.816 76.7733 777.792 76.5474Z" fill="#09366D"/>
<path d="M761.575 78.2123C766.491 77.9891 770.279 73.4697 770.036 68.1181C769.793 62.7664 765.611 58.609 760.695 58.8323C755.779 59.0555 751.991 63.5748 752.234 68.9265C752.477 74.2781 756.659 78.4355 761.575 78.2123Z" fill="#09366D"/>
<path d="M769.029 79.8004C773.945 79.5772 777.752 75.4738 777.532 70.6353C777.312 65.7967 773.149 62.0553 768.233 62.2785C763.318 62.5017 759.511 66.6051 759.73 71.4437C759.95 76.2822 764.113 80.0237 769.029 79.8004Z" fill="#09366D"/>
<path d="M768.126 59.8736C773.456 59.6316 777.583 55.182 777.345 49.9352C777.106 44.6884 772.593 40.6312 767.263 40.8732C761.934 41.1152 757.806 45.5648 758.045 50.8116C758.283 56.0584 762.797 60.1156 768.126 59.8736Z" fill="#09366D"/>
<path d="M821.77 54.23H815.77V85.64H821.77V54.23Z" fill="#09366D"/>
<path d="M808.11 54.74C812.722 54.74 816.46 50.433 816.46 45.12C816.46 39.807 812.722 35.5 808.11 35.5C803.498 35.5 799.76 39.807 799.76 45.12C799.76 50.433 803.498 54.74 808.11 54.74Z" fill="#09366D"/>
<path d="M825.29 54.31C830.68 54.31 835.05 49.506 835.05 43.58C835.05 37.654 830.68 32.85 825.29 32.85C819.9 32.85 815.53 37.654 815.53 43.58C815.53 49.506 819.9 54.31 825.29 54.31Z" fill="#09366D"/>
<path d="M826.86 63.57C831.842 63.57 835.88 59.4196 835.88 54.3C835.88 49.1803 831.842 45.03 826.86 45.03C821.878 45.03 817.84 49.1803 817.84 54.3C817.84 59.4196 821.878 63.57 826.86 63.57Z" fill="#09366D"/>
<path d="M810.59 64.51C815.511 64.51 819.5 60.1671 819.5 54.81C819.5 49.4528 815.511 45.11 810.59 45.11C805.669 45.11 801.68 49.4528 801.68 54.81C801.68 60.1671 805.669 64.51 810.59 64.51Z" fill="#09366D"/>
<path d="M817.96 66.44C822.881 66.44 826.87 62.5135 826.87 57.67C826.87 52.8264 822.881 48.9 817.96 48.9C813.039 48.9 809.05 52.8264 809.05 57.67C809.05 62.5135 813.039 66.44 817.96 66.44Z" fill="#09366D"/>
<path d="M817.96 46.49C823.295 46.49 827.62 42.2322 827.62 36.98C827.62 31.7277 823.295 27.47 817.96 27.47C812.625 27.47 808.3 31.7277 808.3 36.98C808.3 42.2322 812.625 46.49 817.96 46.49Z" fill="#09366D"/>
<path d="M1095.73 68.72H1089.73V100.13H1095.73V68.72Z" fill="#09366D"/>
<path d="M1082.07 69.2301C1086.68 69.2301 1090.42 64.923 1090.42 59.6101C1090.42 54.2971 1086.68 49.9901 1082.07 49.9901C1077.46 49.9901 1073.72 54.2971 1073.72 59.6101C1073.72 64.923 1077.46 69.2301 1082.07 69.2301Z" fill="#09366D"/>
<path d="M1099.25 68.8C1104.64 68.8 1109.01 63.996 1109.01 58.07C1109.01 52.144 1104.64 47.34 1099.25 47.34C1093.86 47.34 1089.49 52.144 1089.49 58.07C1089.49 63.996 1093.86 68.8 1099.25 68.8Z" fill="#09366D"/>
<path d="M1100.82 78.06C1105.8 78.06 1109.84 73.9097 1109.84 68.79C1109.84 63.6703 1105.8 59.52 1100.82 59.52C1095.84 59.52 1091.8 63.6703 1091.8 68.79C1091.8 73.9097 1095.84 78.06 1100.82 78.06Z" fill="#09366D"/>
<path d="M1084.55 79C1089.47 79 1093.46 74.6572 1093.46 69.3C1093.46 63.9429 1089.47 59.6 1084.55 59.6C1079.63 59.6 1075.64 63.9429 1075.64 69.3C1075.64 74.6572 1079.63 79 1084.55 79Z" fill="#09366D"/>
<path d="M1091.92 80.93C1096.84 80.93 1100.83 77.0036 1100.83 72.16C1100.83 67.3165 1096.84 63.39 1091.92 63.39C1087 63.39 1083.01 67.3165 1083.01 72.16C1083.01 77.0036 1087 80.93 1091.92 80.93Z" fill="#09366D"/>
<path d="M1091.92 60.98C1097.26 60.98 1101.58 56.7223 1101.58 51.47C1101.58 46.2178 1097.26 41.96 1091.92 41.96C1086.58 41.96 1082.26 46.2178 1082.26 51.47C1082.26 56.7223 1086.58 60.98 1091.92 60.98Z" fill="#09366D"/>
<path d="M499.676 76.4471L493.687 76.0892L491.813 107.443L497.802 107.801L499.676 76.4471Z" fill="#09366D"/>
<path d="M494.964 67.0123C495.281 61.7088 491.806 57.1865 487.203 56.9114C482.599 56.6362 478.611 60.7126 478.294 66.0161C477.977 71.3196 481.452 75.842 486.055 76.1171C490.658 76.3922 494.647 72.3158 494.964 67.0123Z" fill="#09366D"/>
<path d="M513.611 66.5761C513.964 60.6607 509.889 55.6046 504.508 55.283C499.128 54.9615 494.479 59.4962 494.126 65.4117C493.772 71.3271 497.848 76.3832 503.228 76.7048C508.609 77.0263 513.257 72.4916 513.611 66.5761Z" fill="#09366D"/>
<path d="M513.799 77.3379C514.104 72.2274 510.32 67.8435 505.348 67.5463C500.375 67.2491 496.096 71.1512 495.791 76.2617C495.485 81.3723 499.269 85.7562 504.242 86.0533C509.214 86.3505 513.493 82.4485 513.799 77.3379Z" fill="#09366D"/>
<path d="M497.408 76.8643C497.728 71.5167 494.005 66.9436 489.093 66.6501C484.181 66.3565 479.94 70.4536 479.62 75.8013C479.301 81.1489 483.024 85.722 487.936 86.0155C492.848 86.3091 497.089 82.2119 497.408 76.8643Z" fill="#09366D"/>
<path d="M504.601 80.164C504.89 75.3291 501.143 71.1717 496.231 70.8781C491.318 70.5845 487.102 74.266 486.813 79.1009C486.524 83.9359 490.272 88.0933 495.184 88.3869C500.096 88.6804 504.313 84.9989 504.601 80.164Z" fill="#09366D"/>
<path d="M506.59 59.5591C506.904 54.3162 502.84 49.808 497.515 49.4897C492.189 49.1715 487.618 53.1637 487.305 58.4066C486.991 63.6494 491.055 68.1576 496.38 68.4759C501.706 68.7941 506.277 64.802 506.59 59.5591Z" fill="#09366D"/>
<path d="M271.15 37.9809L265.177 37.4131L262.204 68.6821L268.178 69.2499L271.15 37.9809Z" fill="#09366D"/>
<path d="M266.733 28.4134C267.235 23.1243 263.921 18.4829 259.33 18.0465C254.74 17.6101 250.61 21.544 250.108 26.8331C249.605 32.1223 252.919 36.7637 257.51 37.2001C262.101 37.6365 266.23 33.7026 266.733 28.4134Z" fill="#09366D"/>
<path d="M285.387 28.6428C285.948 22.7434 282.053 17.5474 276.686 17.0373C271.32 16.5273 266.516 20.8962 265.955 26.7956C265.394 32.695 269.29 37.891 274.656 38.4011C280.022 38.9111 284.826 34.5422 285.387 28.6428Z" fill="#09366D"/>
<path d="M285.204 39.4001C285.689 34.3033 282.061 29.7895 277.102 29.3181C272.143 28.8467 267.73 32.5962 267.245 37.6929C266.761 42.7896 270.388 47.3035 275.347 47.7749C280.307 48.2463 284.72 44.4968 285.204 39.4001Z" fill="#09366D"/>
<path d="M268.842 38.3483C269.348 33.0152 265.788 28.3143 260.889 27.8487C255.991 27.383 251.608 31.3289 251.102 36.662C250.595 41.9951 254.155 46.696 259.054 47.1616C263.952 47.6273 268.335 43.6814 268.842 38.3483Z" fill="#09366D"/>
<path d="M275.905 41.896C276.363 37.0742 272.763 32.7878 267.865 32.3222C262.966 31.8565 258.623 35.3879 258.165 40.2097C257.706 45.0315 261.306 49.3178 266.205 49.7835C271.104 50.2491 275.446 46.7178 275.905 41.896Z" fill="#09366D"/>
<path d="M278.609 21.3664C279.106 16.1377 275.204 11.4898 269.893 10.9849C264.581 10.4801 259.873 14.3095 259.376 19.5381C258.879 24.7668 262.782 29.4147 268.093 29.9196C273.404 30.4244 278.112 26.595 278.609 21.3664Z" fill="#09366D"/>
<path d="M421.055 86.768L402.132 83.0579L346.543 70.6462L334.337 65.9857C333.865 63.5022 334.528 60.447 335.316 57.9728C335.419 57.6535 335.531 57.3343 335.633 57.0351C336.348 55.0703 336.985 54.115 336.985 54.115C337.675 54.0501 338.816 53.9585 339.786 53.9357C339.866 53.9363 339.956 53.937 340.036 53.9276C341.777 53.8804 343.826 53.9156 345.826 53.9704C350.875 54.1378 355.715 52.8636 360.711 52.0405C389.777 47.2855 400.909 65.9484 400.909 65.9484C413.83 69.8541 420.85 72.6961 420.85 72.6961C422.203 73.5362 422.884 74.8212 423.153 76.2733C423.192 76.4536 423.221 76.6238 423.239 76.7939C423.391 77.9151 423.312 79.1145 423.113 80.2931C422.558 83.6891 421.055 86.768 421.055 86.768Z" fill="#3576A7"/>
<path d="M353.524 77.288C357.18 77.3151 360.166 74.3732 360.193 70.7172C360.22 67.0612 357.278 64.0754 353.622 64.0484C349.966 64.0213 346.98 66.9632 346.953 70.6192C346.926 74.2752 349.868 77.261 353.524 77.288Z" fill="#09366D"/>
<path d="M405.349 88.8619C409.005 88.8889 411.991 85.9471 412.018 82.291C412.045 78.635 409.103 75.6493 405.447 75.6222C401.791 75.5952 398.806 78.537 398.779 82.1931C398.752 85.8491 401.693 88.8348 405.349 88.8619Z" fill="#09366D"/>
<path d="M399.059 68.5647L354.831 58.6872C354.831 58.6872 380.961 42.5601 399.059 68.5647Z" fill="#09366D"/>
<path d="M380.119 53.5335L378.372 53.1435L375.531 65.8702L377.278 66.2602L380.119 53.5335Z" fill="#3576A7"/>
<path d="M423.113 80.2831C418.767 79.7909 417.031 77.858 417.031 77.858L416.882 73.7168L423.153 76.2633C423.192 76.4436 423.221 76.6138 423.239 76.7839C423.391 77.9051 423.312 79.1045 423.113 80.2831Z" fill="#09366D"/>
<path d="M339.24 57.4518C338.911 58.6594 337.013 58.4354 335.306 57.9627C335.409 57.6435 335.521 57.3243 335.623 57.025C336.338 55.0603 336.975 54.105 336.975 54.105C337.665 54.0401 338.806 53.9485 339.776 53.9257C339.626 55.3646 339.436 56.6932 339.24 57.4418L339.24 57.4518Z" fill="#09366D"/>
<path d="M353.549 73.9281C355.349 73.9414 356.819 72.4927 356.833 70.6923C356.846 68.8919 355.397 67.4216 353.597 67.4083C351.796 67.395 350.326 68.8437 350.313 70.6441C350.299 72.4445 351.748 73.9148 353.549 73.9281Z" fill="#3576A7"/>
<path d="M405.374 85.502C407.175 85.5153 408.645 84.0666 408.658 82.2662C408.672 80.4658 407.223 78.9955 405.423 78.9821C403.622 78.9688 402.152 80.4175 402.138 82.2179C402.125 84.0183 403.574 85.4886 405.374 85.502Z" fill="#3576A7"/>
<path d="M159.447 26.6853C159.607 23.7017 157.152 21.1449 153.964 20.9745C150.777 20.8041 148.063 23.0846 147.904 26.0682C147.744 29.0518 150.199 31.6087 153.387 31.7791C156.574 31.9495 159.288 29.6689 159.447 26.6853Z" fill="#09366D"/>
<path d="M168.337 22.8463C168.522 19.3829 165.516 16.4065 161.623 16.1984C157.729 15.9902 154.422 18.6291 154.237 22.0925C154.052 25.5559 157.058 28.5323 160.952 28.7405C164.846 28.9486 168.152 26.3097 168.337 22.8463Z" fill="#09366D"/>
<path d="M192.075 27.7469C192.24 24.6696 189.53 22.0229 186.022 21.8354C182.515 21.6479 179.538 23.9906 179.374 27.0679C179.209 30.1453 181.919 32.792 185.427 32.9795C188.934 33.167 191.911 30.8243 192.075 27.7469Z" fill="#09366D"/>
<path d="M186.702 23.1081C186.909 19.2476 183.723 15.9389 179.587 15.7177C175.451 15.4966 171.93 18.4469 171.724 22.3074C171.517 26.1679 174.703 29.4767 178.839 29.6978C182.976 29.9189 186.496 26.9686 186.702 23.1081Z" fill="#09366D"/>
<path d="M179.76 19.6233C179.964 15.8069 176.307 12.5088 171.592 12.2568C166.877 12.0047 162.889 14.8941 162.685 18.7105C162.481 22.5268 166.138 25.8249 170.853 26.077C175.569 26.3291 179.556 23.4397 179.76 19.6233Z" fill="#09366D"/>
<path d="M176.85 29.6899C177.026 26.3975 174.406 23.5808 170.998 23.3986C167.589 23.2164 164.684 25.7377 164.508 29.0301C164.332 32.3226 166.952 35.1393 170.36 35.3215C173.768 35.5037 176.674 32.9824 176.85 29.6899Z" fill="#09366D"/>
<path d="M166.308 30.1C166.455 27.3481 164.151 24.9876 161.162 24.8278C158.173 24.668 155.631 26.7694 155.484 29.5214C155.337 32.2734 157.64 34.6338 160.63 34.7936C163.619 34.9534 166.161 32.852 166.308 30.1Z" fill="#09366D"/>
<path d="M184.931 31.0999C185.078 28.348 182.774 25.9875 179.785 25.8277C176.796 25.6679 174.253 27.7693 174.106 30.5213C173.959 33.2732 176.263 35.6337 179.252 35.7935C182.241 35.9533 184.784 33.8519 184.931 31.0999Z" fill="#09366D"/>
<path d="M170.46 33.42L169.18 57.33" stroke="#09366D" stroke-width="3" stroke-miterlimit="10"/>
<path d="M179.7 35.18C179.36 41.52 160.74 40.53 161.08 34.19" stroke="#09366D" stroke-width="3" stroke-miterlimit="10"/>
<path d="M1175.42 72.0546C1178.6 71.8419 1181.02 69.2527 1180.82 66.2715C1180.62 63.2903 1177.88 61.0459 1174.7 61.2586C1171.51 61.4713 1169.09 64.0604 1169.29 67.0417C1169.49 70.0229 1172.23 72.2672 1175.42 72.0546Z" fill="#09366D"/>
<path d="M1182.56 68.1516C1186.45 67.8918 1189.42 64.8758 1189.19 61.4152C1188.96 57.9545 1185.61 55.3597 1181.72 55.6195C1177.83 55.8793 1174.87 58.8953 1175.1 62.3559C1175.33 65.8165 1178.67 68.4114 1182.56 68.1516Z" fill="#09366D"/>
<path d="M1207.36 69.4132C1210.86 69.1792 1213.54 66.4968 1213.33 63.4219C1213.13 60.347 1210.12 58.044 1206.62 58.278C1203.11 58.512 1200.44 61.1944 1200.64 64.2693C1200.85 67.3442 1203.86 69.6472 1207.36 69.4132Z" fill="#09366D"/>
<path d="M1200.42 66.957C1204.55 66.6811 1207.7 63.3303 1207.44 59.4729C1207.18 55.6155 1203.62 52.7122 1199.49 52.9881C1195.36 53.2641 1192.21 56.6148 1192.47 60.4722C1192.73 64.3296 1196.29 67.233 1200.42 66.957Z" fill="#09366D"/>
<path d="M1192.07 64.3192C1196.79 64.0046 1200.4 60.6582 1200.14 56.8449C1199.89 53.0316 1195.86 50.1953 1191.15 50.5099C1186.44 50.8245 1182.83 54.1708 1183.08 57.9842C1183.34 61.7975 1187.36 64.6338 1192.07 64.3192Z" fill="#09366D"/>
<path d="M1192.69 73.5334C1196.09 73.306 1198.68 70.4547 1198.46 67.1649C1198.24 63.8751 1195.3 61.3925 1191.89 61.6199C1188.49 61.8473 1185.9 64.6985 1186.12 67.9884C1186.34 71.2782 1189.28 73.7607 1192.69 73.5334Z" fill="#09366D"/>
<path d="M1182.96 74.1955C1185.95 73.9961 1188.22 71.6053 1188.04 68.8555C1187.85 66.1057 1185.28 64.0382 1182.3 64.2377C1179.31 64.4371 1177.04 66.8279 1177.22 69.5777C1177.41 72.3274 1179.98 74.3949 1182.96 74.1955Z" fill="#09366D"/>
<path d="M1201.57 72.9484C1204.55 72.749 1206.83 70.3582 1206.64 67.6084C1206.46 64.8586 1203.89 62.7912 1200.9 62.9906C1197.92 63.19 1195.64 65.5808 1195.83 68.3306C1196.01 71.0804 1198.58 73.1478 1201.57 72.9484Z" fill="#09366D"/>
<path d="M1192.56 71.74L1194.16 95.63" stroke="#09366D" stroke-width="3" stroke-miterlimit="10"/>
<path d="M1201.95 72.3799C1202.37 78.7199 1183.76 79.9599 1183.34 73.6199" stroke="#09366D" stroke-width="3" stroke-miterlimit="10"/>
</g>
<defs>
<clipPath id="clip0_553_5616">
<rect width="1282.01" height="143.4" fill="white"/>
</clipPath>
</defs>
</svg>
